# xmcd
#
# Track frame offsets:
# 150
# 9465
# 21477
# 31592
# 40915
# 52957
# 63250
# 78590
# 84932
# 96882
#
# Disc length: 1408 seconds
#
# Revision: 0
# Processed by: cddbd v1.5.2PL0 Copyright (c) Steve Scherf et al.
# Submitted via: Audion 3.0.2 (http://www.panic.com/audion/)
#
DISCID=6c057e0a
DTITLE=Various Artist - 50 Years of Country Music
DYEAR=1900
DGENRE=
TTITLE0=Kiss An Angel Good Morning - Charlie Pride
TTITLE1=She Needs Someone To Hold Her (When She Cries) - Conway Twitty
TTITLE2=Slow Poke - Pee Wee King and Redd Stewart
TTITLE3=Poor Man's Riches - Benny Barnes
TTITLE4=End Of The World - Skeeter Davis
TTITLE5=Walk Through This World With Me - George Jones
TTITLE6=With Pen In Hand - Johnny Darrel
TTITLE7=Cotton Eyed Joe - Stones River Ranch Boys
TTITLE8=That's My Pa - Sheb Wooley
TTITLE9=18 Wheels A Rollin' - Betty Amos
EXTD=
EXTT0=
EXTT1=
EXTT2=
EXTT3=
EXTT4=
EXTT5=
EXTT6=
EXTT7=
EXTT8=
EXTT9=
PLAYORDER=
